<svg width="33" height="27" viewBox="0 0 33 27" fill="none" xmlns="http://www.w3.org/2000/svg">
<path d="M5.28125 21.7812C5.28125 22.4922 5.78906 23 6.5 23C7.16016 23 7.71875 22.4922 7.71875 21.7812C7.71875 21.1211 7.16016 20.5625 6.5 20.5625C5.78906 20.5625 5.28125 21.1211 5.28125 21.7812ZM11.375 13.25C14.9297 13.25 17.875 10.3555 17.875 6.75C17.875 3.19531 14.9297 0.25 11.375 0.25C7.76953 0.25 4.875 3.19531 4.875 6.75C4.875 10.3555 7.76953 13.25 11.375 13.25ZM16.25 14.9258V17.4141C18.0273 17.7695 19.4492 19.5469 19.5 21.375V23.4062V23.457C19.5 23.8125 19.1953 24.168 18.8398 24.2188L17.2148 24.5742C17.1641 24.5742 17.1133 24.5742 17.1133 24.5742C16.9102 24.5742 16.7578 24.4219 16.707 24.2188L16.5547 23.457C16.5547 23.4062 16.5547 23.4062 16.5547 23.3555C16.5547 23.1523 16.707 23 16.8594 22.9492L17.875 22.7461V21.375C17.8242 20.0547 16.7578 18.9883 15.3867 18.9883C15.2852 18.9883 15.082 18.9883 14.9297 18.9883C13.7617 19.2422 13 20.3086 13 21.4766V22.7461L13.9648 22.9492C14.1172 23 14.2695 23.2031 14.2695 23.3555C14.2695 23.4062 14.2695 23.4062 14.2695 23.457L14.1172 24.2188C14.0664 24.4219 13.9141 24.5742 13.7109 24.5742H13.6602L12.0352 24.3203C11.6797 24.2695 11.375 23.9141 11.375 23.5586V21.375C11.375 19.5469 12.7969 17.7695 14.625 17.4141V15.0781C13.7109 15.4336 12.2891 15.6875 11.3242 15.6875C10.5117 15.6875 9.19141 15.4844 8.42969 15.2305C8.125 15.1289 7.61719 14.9766 7.3125 14.9258V19.0898C8.42969 19.4453 9.34375 20.6641 9.34375 21.832C9.34375 23.4062 8.02344 24.6758 6.5 24.6758C4.92578 24.6758 3.65625 23.4062 3.65625 21.832C3.65625 20.6641 4.51953 19.4453 5.6875 19.0898V15.0273C2.4375 15.5352 0 18.3281 0 21.7305V23.8125C0 25.1836 1.06641 26.25 2.4375 26.25H20.3125C21.6328 26.25 22.75 25.1836 22.75 23.8125V21.7305C22.75 18.0742 19.8555 15.1289 16.25 14.9258ZM26 0.25C22.3945 0.25 19.5 2.83984 19.5 5.9375C19.5 7.41016 20.1094 8.73047 21.1758 9.74609C20.8203 10.5586 20.1094 11.8281 19.5508 12.5391C19.5 12.6406 19.4492 12.7422 19.4492 12.8438C19.4492 12.8945 19.5 12.9961 19.5 12.9961C19.5508 13.1992 19.7031 13.25 19.8047 13.25C21.8359 13.25 23.5117 12.3867 24.6289 11.5234C25.0352 11.5742 25.5938 11.625 26 11.625C29.5547 11.625 32.5 9.08594 32.5 5.9375C32.5 2.83984 29.5547 0.25 26 0.25Z" fill="#C5C5C5"/>
</svg>
