<svg width="29" height="28" viewBox="0 0 29 28" fill="none" xmlns="http://www.w3.org/2000/svg">
<path d="M15.2969 11.75H6C5.01562 11.75 4.25 10.9844 4.25 10C4.25 9.07031 3.42969 8.25 2.5 8.25C1.51562 8.25 0.75 9.07031 0.75 10C0.75 12.2969 2.17188 14.2109 4.25 14.9766V26.625C4.25 27.1172 4.63281 27.5 5.125 27.5H8.625C9.0625 27.5 9.5 27.1172 9.5 26.625V20.5H18.25V26.625C18.25 27.1172 18.6328 27.5 19.125 27.5H22.625C23.0625 27.5 23.5 27.1172 23.5 26.625V14.7031L15.2969 11.75ZM28.75 5.625C28.75 5.1875 28.3125 4.75 27.875 4.75H24.375L23.9375 3.98438C23.6641 3.4375 23.0078 3 22.4062 3H19.4531L17.9766 1.52344C17.4297 0.976562 16.5 1.35938 16.5 2.125V10.3281L23.5 12.8438V10.875H25.25C27.1641 10.875 28.75 9.34375 28.75 7.375V5.625ZM22.625 5.625C22.625 6.11719 22.1875 6.5 21.75 6.5C21.2578 6.5 20.875 6.11719 20.875 5.625C20.875 5.1875 21.2578 4.75 21.75 4.75C22.1875 4.75 22.625 5.1875 22.625 5.625Z" fill="#FAFAFA"/>
</svg>
