<svg width="31" height="24" viewBox="0 0 31 24" fill="none" xmlns="http://www.w3.org/2000/svg">
<path d="M15.2188 6.81641L5.875 14.5352V22.8125C5.875 23.2695 6.23047 23.625 6.6875 23.625H12.375C12.7812 23.625 13.1367 23.2695 13.1367 22.8125V17.9375C13.1367 17.5312 13.543 17.125 13.9492 17.125H17.1992C17.6562 17.125 18.0117 17.5312 18.0117 17.9375V22.8125C18.0117 23.2695 18.418 23.625 18.8242 23.625H24.5625C24.9688 23.625 25.375 23.2695 25.375 22.8125V14.4844L15.9805 6.81641C15.8789 6.71484 15.7266 6.66406 15.625 6.66406C15.4727 6.66406 15.3203 6.71484 15.2188 6.81641ZM29.9961 12.0469L25.7812 8.54297V1.53516C25.7812 1.17969 25.4766 0.925781 25.1719 0.925781H22.3281C21.9727 0.925781 21.7188 1.17969 21.7188 1.53516V5.19141L17.1484 1.43359C16.793 1.12891 16.082 0.925781 15.5742 0.925781C15.1172 0.925781 14.4062 1.12891 14.0508 1.43359L1.20312 12.0469C1.05078 12.1484 0.949219 12.3516 0.949219 12.5039C0.949219 12.6562 1.05078 12.8086 1.10156 12.9102L2.42188 14.4844C2.52344 14.5859 2.72656 14.6875 2.87891 14.6875C2.98047 14.6875 3.18359 14.6367 3.28516 14.5352L15.2188 4.73438C15.3203 4.63281 15.4727 4.58203 15.625 4.58203C15.7266 4.58203 15.8789 4.63281 15.9805 4.73438L27.9141 14.5352C28.0156 14.6367 28.2188 14.6875 28.3203 14.6875C28.4727 14.6875 28.6758 14.5859 28.7773 14.4844L30.0977 12.9102C30.1484 12.8086 30.25 12.6562 30.25 12.5039C30.25 12.3516 30.1484 12.1484 29.9961 12.0469Z" fill="#274D9B"/>
</svg>
