<svg width="30" height="30" viewBox="0 0 30 30" fill="none" xmlns="http://www.w3.org/2000/svg">
<path d="M10.5989 18.7346C13.8439 18.7346 16.4746 16.1039 16.4746 12.8589C16.4746 9.6138 13.8439 6.98315 10.5989 6.98315C7.35379 6.98315 4.72314 9.6138 4.72314 12.8589C4.72314 16.1039 7.35379 18.7346 10.5989 18.7346Z" stroke="#274D9B" stroke-width="1.80791" stroke-miterlimit="10"/>
<path d="M18.2161 7.20203C19.0242 6.97433 19.8718 6.92246 20.7017 7.04991C21.5316 7.17736 22.3245 7.48117 23.0271 7.94088C23.7297 8.40058 24.3256 9.00552 24.7747 9.71493C25.2239 10.4243 25.5157 11.2218 25.6307 12.0535C25.7457 12.8852 25.6811 13.7319 25.4413 14.5365C25.2015 15.3412 24.792 16.0851 24.2405 16.7182C23.689 17.3513 23.0082 17.8588 22.244 18.2066C21.4798 18.5545 20.65 18.7345 19.8104 18.7346" stroke="#274D9B" stroke-width="1.80791" stroke-linecap="round" stroke-linejoin="round"/>
<path d="M2.46265 22.9602C3.38031 21.6549 4.59857 20.5896 6.01457 19.8541C7.43056 19.1186 9.00273 18.7347 10.5983 18.7346C12.1939 18.7346 13.7661 19.1184 15.1822 19.8538C16.5982 20.5891 17.8166 21.6544 18.7343 22.9596" stroke="#274D9B" stroke-width="1.80791" stroke-linecap="round" stroke-linejoin="round"/>
<path d="M19.8103 18.7346C21.4061 18.7335 22.9786 19.1168 24.3948 19.8523C25.8109 20.5877 27.029 21.6536 27.9459 22.9596" stroke="#274D9B" stroke-width="1.80791" stroke-linecap="round" stroke-linejoin="round"/>
</svg>
