<svg width="30" height="25" viewBox="0 0 30 25" fill="none" xmlns="http://www.w3.org/2000/svg">
<path d="M5.6875 0.875C2.53906 0.875 0 3.46484 0 6.5625V17.9375C0 21.0859 2.53906 23.625 5.6875 23.625C8.78516 23.625 11.375 21.0859 11.375 17.9375V6.5625C11.375 3.46484 8.78516 0.875 5.6875 0.875ZM8.125 12.25H3.25V6.5625C3.25 5.24219 4.31641 4.125 5.6875 4.125C7.00781 4.125 8.125 5.24219 8.125 6.5625V12.25ZM15.1836 10.7773C15.0312 10.5742 14.7266 10.625 14.5742 10.8281C12.2891 13.9766 12.543 18.4453 15.3867 21.2891C18.2305 24.1328 22.6992 24.3867 25.8477 22.1016C26.0508 21.9492 26.1016 21.6445 25.8984 21.4922L15.1836 10.7773ZM26.8633 9.8125C24.0195 6.91797 19.5508 6.71484 16.4023 9C16.1992 9.15234 16.1484 9.45703 16.3516 9.60938L27.0664 20.3242C27.2188 20.4766 27.5234 20.4766 27.6758 20.2734C29.9609 17.125 29.707 12.6562 26.8633 9.8125Z" fill="#C5C5C5"/>
</svg>
