<svg width="26" height="26" viewBox="0 0 26 26" fill="none" xmlns="http://www.w3.org/2000/svg">
<path d="M12.5938 0.65625C5.63672 0.65625 0 6.29297 0 13.25C0 20.207 5.63672 25.8438 12.5938 25.8438C19.5508 25.8438 25.1875 20.207 25.1875 13.25C25.1875 6.29297 19.5508 0.65625 12.5938 0.65625ZM12.5938 5.53125C15.0312 5.53125 17.0625 7.5625 17.0625 10C17.0625 12.4883 15.0312 14.4688 12.5938 14.4688C10.1055 14.4688 8.125 12.4883 8.125 10C8.125 7.5625 10.1055 5.53125 12.5938 5.53125ZM12.5938 23C9.59766 23 6.90625 21.6797 5.12891 19.5469C6.09375 17.7695 7.97266 16.5 10.1562 16.5C10.2578 16.5 10.3594 16.5508 10.5117 16.6016C11.1719 16.8047 11.832 16.9062 12.5938 16.9062C13.3047 16.9062 14.0156 16.8047 14.625 16.6016C14.7773 16.5508 14.8789 16.5 15.0312 16.5C17.1641 16.5 19.043 17.7695 20.0078 19.5469C18.2305 21.6797 15.5391 23 12.5938 23Z" fill="#C5C5C5"/>
</svg>
